<svg width="70" height="56" viewBox="0 0 70 56" fill="none" xmlns="http://www.w3.org/2000/svg">
<path d="M40.6673 21.2055C40.6673 18.4528 38.7242 16.9332 35.3114 16.9332H29.0338V25.8016H34.3274C38.4128 25.7891 40.6673 24.145 40.6673 21.2055ZM63.5231 19.6112C62.3399 15.7624 62.1655 11.0418 62.3025 7.39231C62.4395 3.59338 59.4751 0.105835 55.4893 0.105835H14.5356C10.5374 0.105835 7.58541 3.60583 7.72242 7.39231C7.84698 11.0418 7.68505 15.7624 6.50178 19.6112C5.30605 23.4724 3.30071 25.9137 0 26.225V29.7749C3.28826 30.0863 5.30605 32.5275 6.50178 36.3888C7.68505 40.2375 7.85943 44.9581 7.72242 48.6076C7.58541 52.4065 10.5498 55.8941 14.5356 55.8941H55.4769C59.4751 55.8941 62.427 52.3941 62.29 48.6076C62.1655 44.9581 62.3274 40.2375 63.5107 36.3888C64.7064 32.5275 66.7117 30.0863 70 29.7749V26.225C66.7242 25.9137 64.7064 23.4724 63.5231 19.6112ZM36.5196 42.8407H24.3256V13.1592H36.4573C41.8505 13.1592 45.3879 16.0738 45.3879 20.5578C45.3879 23.709 43.0089 26.524 39.9697 27.0097V27.1717C44.105 27.6201 46.8826 30.4848 46.8826 34.4332C46.8826 39.677 42.984 42.8407 36.5196 42.8407ZM35.274 29.3016H29.0338V39.0667H35.548C39.8078 39.0667 42.0623 37.3603 42.0623 34.1468C42.0623 30.9457 39.7456 29.3016 35.274 29.3016Z" fill="#00ADB5"/>
</svg>
