<svg width="70" height="70" viewBox="0 0 70 70" fill="none" xmlns="http://www.w3.org/2000/svg">
<path d="M55.297 0C52.3998 0.00411429 49.5681 0.92093 47.157 2.63553C44.7459 4.35014 42.8626 6.78625 41.743 9.63852H4.1259C3.03357 9.63979 1.9862 10.1029 1.21296 10.9264C0.43972 11.7499 0.00358859 12.8669 0 14.0328L0 26.9743C0.00281333 27.5745 0.122043 28.1675 0.350177 28.716C0.578312 29.2645 0.910406 29.7567 1.32553 30.1614C0.910406 30.5662 0.578312 31.0583 0.350177 31.6068C0.122043 32.1554 0.00281333 32.7484 0 33.3485L0 46.29C0.00281333 46.8901 0.122043 47.4832 0.350177 48.0317C0.578312 48.5802 0.910406 49.0723 1.32553 49.4771C0.910406 49.8819 0.578312 50.374 0.350177 50.9225C0.122043 51.471 0.00281333 52.064 0 52.6642L0 65.6057C0 68.0298 1.85484 70 4.1259 70H56.9573C59.2283 70 61.0741 68.0298 61.0741 65.6057V52.6642C61.0713 52.064 60.9521 51.471 60.724 50.9225C60.4958 50.374 60.1637 49.8819 59.7486 49.4771C60.1637 49.0723 60.4958 48.5802 60.724 48.0317C60.9521 47.4832 61.0713 46.8901 61.0741 46.29V33.3485C61.0636 32.286 60.6867 31.2648 60.0155 30.4801C62.9172 29.436 65.4402 27.4489 67.2307 24.7973C69.0212 22.1457 69.9895 18.9625 70 15.694C69.9952 11.5333 68.4446 7.54439 65.6883 4.60231C62.932 1.66022 59.195 0.00511147 55.297 0ZM55.297 2.41446C58.5958 2.41702 61.7588 3.81693 64.0915 6.30677C66.4241 8.79661 67.7356 12.1728 67.738 15.694C67.7336 19.1802 66.445 22.5247 64.1504 25.0056C61.8557 27.4865 58.7392 28.9048 55.4734 28.9542H55.1205C51.8548 28.9048 48.7382 27.4865 46.4436 25.0056C44.149 22.5247 42.8604 19.1802 42.8559 15.694C42.8583 12.1728 44.1699 8.79661 46.5025 6.30677C48.8351 3.81693 51.9981 2.41702 55.297 2.41446ZM61.2596 9.72544L52.4695 19.1032L49.3208 15.7471L47.7238 17.4517L51.6597 21.6674C51.8741 21.8898 52.1614 22.0142 52.4604 22.0142C52.7594 22.0142 53.0467 21.8898 53.2612 21.6674L62.8611 11.43L61.2596 9.72544ZM4.1259 12.053H41.0328C40.7505 13.2435 40.6032 14.4659 40.5939 15.694C40.5981 18.3492 41.2352 20.9595 42.4453 23.2793C43.6554 25.5991 45.3988 27.552 47.5112 28.9542H4.1259C3.63313 28.9542 3.1604 28.7459 2.81111 28.3749C2.46183 28.0039 2.2644 27.5003 2.262 26.9743V14.0328C2.262 12.9367 3.10347 12.053 4.1259 12.053ZM7.91702 19.2964V21.7108H26.0131V19.2964H7.91702ZM4.1259 31.3687H55.1205C55.1793 31.3687 55.2336 31.388 55.297 31.388C55.3603 31.388 55.4101 31.3687 55.4734 31.3687H56.9573C57.9842 31.3687 58.8212 32.2572 58.8212 33.3485V46.29C58.8212 47.3862 57.9797 48.2699 56.9573 48.2699H4.1259C3.63313 48.2699 3.1604 48.0616 2.81111 47.6906C2.46183 47.3196 2.2644 46.816 2.262 46.29V33.3485C2.262 32.2523 3.10347 31.3687 4.1259 31.3687ZM50.9856 38.3706C50.8074 38.3706 50.6309 38.4081 50.4662 38.4809C50.3015 38.5537 50.1519 38.6604 50.0259 38.7949C49.8999 38.9294 49.7999 39.0891 49.7317 39.2649C49.6635 39.4406 49.6284 39.629 49.6284 39.8193C49.6284 40.0095 49.6635 40.1979 49.7317 40.3736C49.7999 40.5494 49.8999 40.7091 50.0259 40.8436C50.1519 40.9782 50.3015 41.0849 50.4662 41.1577C50.6309 41.2305 50.8074 41.2679 50.9856 41.2679C51.3455 41.2679 51.6908 41.1153 51.9453 40.8436C52.1998 40.572 52.3428 40.2035 52.3428 39.8193C52.3428 39.435 52.1998 39.0666 51.9453 38.7949C51.6908 38.5232 51.3455 38.3706 50.9856 38.3706ZM7.91702 38.612V41.0265H26.0131V38.612H7.91702ZM4.1259 50.6843H56.9573C57.2009 50.6843 57.4421 50.7355 57.6671 50.835C57.8921 50.9345 58.0966 51.0804 58.2689 51.2642C58.4411 51.4481 58.5777 51.6663 58.6709 51.9065C58.7642 52.1467 58.8121 52.4042 58.8121 52.6642V65.6057C58.8121 66.1308 58.6167 66.6344 58.2689 67.0057C57.921 67.3769 57.4492 67.5855 56.9573 67.5855H4.1259C3.63313 67.5855 3.1604 67.3773 2.81111 67.0062C2.46183 66.6352 2.2644 66.1317 2.262 65.6057V52.6642C2.262 51.568 3.10347 50.6843 4.1259 50.6843ZM50.868 57.6863C50.508 57.6863 50.1628 57.8389 49.9083 58.1106C49.6538 58.3822 49.5108 58.7507 49.5108 59.1349C49.5108 59.5191 49.6538 59.8876 49.9083 60.1593C50.1628 60.431 50.508 60.5836 50.868 60.5836C51.2279 60.5836 51.5731 60.431 51.8277 60.1593C52.0822 59.8876 52.2252 59.5191 52.2252 59.1349C52.2252 58.7507 52.0822 58.3822 51.8277 58.1106C51.5731 57.8389 51.2279 57.6863 50.868 57.6863ZM7.91702 57.9277V60.3422H26.0131V57.9277H7.91702Z" fill="#00ADB5"/>
</svg>
