<svg width="49" height="72" viewBox="0 0 49 72" fill="none" xmlns="http://www.w3.org/2000/svg">
<path d="M36.0002 47.6662C42.4436 47.6662 47.6669 42.4429 47.6669 35.9995C47.6669 29.5562 42.4436 24.3329 36.0002 24.3329C29.5569 24.3329 24.3336 29.5562 24.3336 35.9995C24.3336 42.4429 29.5569 47.6662 36.0002 47.6662Z" stroke="#00ADB5" stroke-width="2" stroke-linecap="round" stroke-linejoin="round"/>
<path fill-rule="evenodd" clip-rule="evenodd" d="M24.3333 24.333V1H12.6667C6.22334 1 1 6.22334 1 12.6667C1 19.11 6.22334 24.3333 12.6667 24.3333L24.3333 24.333Z" stroke="#00ADB5" stroke-width="2" stroke-linecap="round" stroke-linejoin="round"/>
<path fill-rule="evenodd" clip-rule="evenodd" d="M24.3336 47.6659V24.3329H12.6669C6.22359 24.3329 1.00024 29.5562 1.00024 35.9995C1.00024 42.4429 6.22359 47.6662 12.6669 47.6662L24.3336 47.6659Z" stroke="#00ADB5" stroke-width="2" stroke-linecap="round" stroke-linejoin="round"/>
<path fill-rule="evenodd" clip-rule="evenodd" d="M24.3336 24.333V1H36.0003C42.4436 1 47.6669 6.22334 47.6669 12.6667C47.6669 19.11 42.4436 24.3333 36.0003 24.3333L24.3336 24.333Z" stroke="#00ADB5" stroke-width="2" stroke-linecap="round" stroke-linejoin="round"/>
<path fill-rule="evenodd" clip-rule="evenodd" d="M24.3337 47.6661V59.3329C24.3337 64.0517 21.4913 68.3058 17.1317 70.1116C12.7722 71.9175 7.75416 70.9194 4.41748 67.5827C1.08081 64.2461 0.0826294 59.2281 1.8884 54.8685C3.69417 50.509 7.94826 47.6664 12.667 47.6664L24.3337 47.6661Z" stroke="#00ADB5" stroke-width="2" stroke-linecap="round" stroke-linejoin="round"/>
</svg>
