<svg width="70" height="70" viewBox="0 0 70 70" fill="none" xmlns="http://www.w3.org/2000/svg">
<path d="M15.7172 47.225C23.3062 47.7422 24.9281 47.5547 24.9281 49.0906C24.9281 52.2156 14.6859 52.225 14.6859 49.3281C14.6875 48.5328 15.2 47.8594 15.7172 47.225ZM20.0844 29C15.0391 29 14.8109 35.9484 19.9672 35.9484C25.0469 35.9484 24.9219 29 20.0844 29ZM70 7.5V62.5C70 64.4891 69.2098 66.3968 67.8033 67.8033C66.3968 69.2098 64.4891 70 62.5 70H7.5C5.51088 70 3.60322 69.2098 2.1967 67.8033C0.790176 66.3968 0 64.4891 0 62.5L0 7.5C0 5.51088 0.790176 3.60322 2.1967 2.1967C3.60322 0.790177 5.51088 0 7.5 0H62.5C64.4891 0 66.3968 0.790177 67.8033 2.1967C69.2098 3.60322 70 5.51088 70 7.5ZM34.5312 18.3297C34.5312 20.5938 35.8406 21.9047 38.1031 21.9047C40.4062 21.9047 41.7172 20.5938 41.7172 18.3297C41.7172 16.0656 40.4094 14.8438 38.1063 14.8438C35.8438 14.8438 34.5312 16.0688 34.5312 18.3297ZM31.1219 25.4688H23.3797C19.4734 24.4453 10.6359 24.7109 10.6359 32.7734C10.6359 35.7109 12.1047 37.7734 14.05 38.7281C11.5984 40.9734 10.4375 42.0312 10.4375 43.5312C10.4375 44.6047 10.8734 45.5969 12.1844 46.15C10.7938 47.4625 9.99687 48.4125 9.99687 50.2C10 53.3359 12.7391 55.1562 19.925 55.1562C26.8344 55.1562 30.8422 52.5766 30.8422 48.0109C30.8422 42.2812 26.4313 42.4922 16.0344 41.8578L17.3438 39.7594C20 40.5 28.9359 40.7328 28.9359 33.1297C28.9359 31.3031 28.1812 30.0328 27.4672 29.1187L31.1203 28.8406L31.1219 25.4688ZM44.3 42.6312L42.2687 42.3531C41.6719 42.2734 41.6328 42.1969 41.6328 41.5578V25.0813H33.4141L32.9781 28.2953C35.4391 29.1625 35.6344 29.0547 35.6344 29.8844V41.5625C35.6344 42.4406 35.5859 42.2781 32.9781 42.6359V45.7703H44.2938L44.3 42.6312ZM60 44.2188L58.9266 40.7234C52.5312 43.125 53.0125 38.7844 53.0125 38.1094V28.6219H58.9266V24.6516H53.3297C52.8812 24.6516 53.0172 25.0453 53.0172 18.6156H49.2391C48.8031 22.9438 47.4141 24.6906 43.9266 25.0875V28.6219C47.125 28.6219 47.0234 28.4891 47.0234 29.0187V39.4203C47.0234 43.9078 48.8094 45.8125 53.5344 45.8125C55.7922 45.8125 58.2922 45.0578 60 44.2188Z" fill="#00ADB5"/>
</svg>
