<svg width="70" height="70" viewBox="0 0 70 70" fill="none" xmlns="http://www.w3.org/2000/svg">
<path d="M10 0C4.47715 0 0 4.47715 0 10V60C0 65.5229 4.47715 70 10 70H60C65.5229 70 70 65.5229 70 60V10C70 4.47715 65.5229 0 60 0H10ZM38.0938 54.5938C38.0938 61.4062 34.0938 64.5156 28.2656 64.5156C24.3961 64.5156 21.7248 63.0474 19.9602 60.9605C18.8872 59.6916 19.4736 57.8464 20.8964 56.9878C22.4587 56.0449 24.2821 56.808 25.7303 57.9181C26.318 58.3687 27.0345 58.6406 27.9844 58.6406C30.1406 58.6406 31.5156 57.7969 31.5156 54.5V35.4297C31.5156 33.6132 32.9882 32.1406 34.8047 32.1406C36.6212 32.1406 38.0938 33.6132 38.0938 35.4297V54.5938ZM53.6562 64.5156C48.9868 64.5156 45.577 62.8179 43.371 60.3154C42.2404 59.0329 42.8296 57.1286 44.3103 56.2738C45.8243 55.3999 47.6842 55.9886 49.0136 57.1238C50.155 58.0985 51.5884 58.7031 53.5156 58.7031C56.2344 58.7031 57.9844 57.3438 57.9844 55.4531C57.9844 53.2031 56.2031 52.4062 53.1875 51.0781L51.5469 50.375C46.7969 48.3594 43.6562 45.8125 43.6562 40.4531C43.6562 35.5156 47.4219 31.7656 53.2812 31.7656C56.4789 31.7656 58.9841 32.613 60.9499 34.7112C62.0497 35.885 61.5646 37.7101 60.21 38.5774C58.7405 39.5183 56.9029 38.786 55.3622 37.9672C54.7556 37.6448 54.0717 37.5 53.2656 37.5C51.3438 37.5 50.125 38.7188 50.125 40.3125C50.125 42.2812 51.3438 43.0781 54.1719 44.3125L55.8125 45.0156C61.4062 47.4062 64.5469 49.8594 64.5469 55.3594C64.5469 61.2656 59.8906 64.5156 53.6562 64.5156Z" fill="#00ADB5"/>
</svg>
