<svg width="47" height="50" viewBox="0 0 47 50" fill="none" xmlns="http://www.w3.org/2000/svg">
<path d="M46.9773 11.7529C46.9699 11.7309 46.961 11.7094 46.9508 11.6886C46.9373 11.648 46.9205 11.6084 46.9007 11.5705C46.8854 11.5469 46.8684 11.5244 46.8497 11.5034C46.8289 11.4723 46.8062 11.4427 46.7817 11.4145C46.7599 11.3937 46.7325 11.3767 46.7089 11.3578C46.6819 11.3346 46.6535 11.3131 46.6238 11.2936L37.5264 6.0559C37.4115 5.98954 37.2811 5.9546 37.1484 5.9546C37.0157 5.9546 36.8853 5.98954 36.7704 6.0559L27.6711 11.2964C27.6419 11.3162 27.6141 11.338 27.5879 11.3616C27.5622 11.3789 27.5376 11.3978 27.5142 11.4183C27.4895 11.4459 27.4667 11.4753 27.4462 11.5062C27.4301 11.5289 27.4093 11.5487 27.3952 11.5733C27.376 11.6115 27.3596 11.651 27.346 11.6914C27.3384 11.7132 27.3262 11.733 27.3195 11.7557C27.3022 11.8198 27.2933 11.8859 27.2931 11.9523V21.8983L19.7116 26.2637V6.80157C19.7118 6.73483 19.7029 6.66839 19.6852 6.60405C19.6795 6.58136 19.6663 6.56152 19.6587 6.53978C19.6455 6.49946 19.6291 6.46027 19.6095 6.42259C19.5963 6.39802 19.5746 6.37817 19.5585 6.35454C19.5377 6.32353 19.515 6.29385 19.4905 6.26571C19.4669 6.24554 19.4423 6.22661 19.4167 6.209C19.3903 6.18602 19.3625 6.16457 19.3336 6.14474L10.2334 0.90708C10.1184 0.840721 9.98806 0.805786 9.85534 0.805786C9.72262 0.805786 9.59224 0.840721 9.4773 0.90708L0.378981 6.14474C0.349443 6.16405 0.321618 6.18587 0.295814 6.20995C0.26975 6.22725 0.244813 6.24619 0.221152 6.26665C0.196709 6.2943 0.174284 6.32368 0.154051 6.35454C0.13704 6.37817 0.116248 6.39802 0.102072 6.42259C0.0827052 6.46021 0.0665805 6.49942 0.0538726 6.53978C0.0435505 6.56035 0.0344 6.5815 0.0264652 6.6031C0.00907842 6.66783 0.000183029 6.73455 2.8027e-06 6.80157V37.961C-0.000359467 38.0941 0.0344038 38.2249 0.100781 38.3402C0.167158 38.4555 0.262797 38.5513 0.378036 38.6178L18.5709 49.0931C18.6113 49.1135 18.6534 49.1306 18.6966 49.1442C18.7164 49.1517 18.7353 49.1631 18.7561 49.1687C18.8831 49.2028 19.0167 49.2028 19.1436 49.1687C19.1625 49.164 19.1786 49.1536 19.1956 49.148C19.2412 49.1336 19.2855 49.1153 19.3279 49.0931L37.5264 38.6178C37.6417 38.5513 37.7373 38.4555 37.8037 38.3402C37.8701 38.2249 37.9048 38.0941 37.9045 37.961V28.013L46.6219 22.9937C46.7379 22.9268 46.834 22.8303 46.9004 22.714C46.9668 22.5978 47.0012 22.466 47 22.3321V11.9504C47.0005 11.8839 46.9929 11.8175 46.9773 11.7529ZM9.85439 2.43906L17.433 6.80062L9.85345 11.165L2.27576 6.80157L9.85439 2.43906ZM18.1948 8.10957V27.136L13.7973 29.6679L10.6133 31.5013V12.4777L15.0108 9.94586L18.1948 8.10957ZM18.1948 47.1207L1.51592 37.5225V8.11335L4.6999 9.94492L9.09644 12.4777V32.8141C9.09835 32.8426 9.10214 32.871 9.10778 32.8991C9.11004 32.9366 9.11509 32.9739 9.1229 33.0106C9.1325 33.0399 9.14452 33.0684 9.15881 33.0957C9.16933 33.1283 9.18261 33.1599 9.1985 33.1902C9.21597 33.2159 9.23491 33.2405 9.25521 33.2639C9.27412 33.2918 9.29496 33.3183 9.31758 33.3433C9.33932 33.3641 9.36673 33.3792 9.39036 33.3981C9.41616 33.4205 9.4433 33.4414 9.47163 33.4605L18.1844 38.392L18.1948 47.1207ZM18.9508 37.0868L11.3845 32.8037L19.3317 28.2285L28.051 23.2092L35.624 27.5688L30.0669 30.7405L18.9508 37.0868ZM36.3895 37.5187L19.7097 47.1255V38.4014L32.0639 31.3511L36.3895 28.8797V37.5187ZM36.3895 26.2599L33.2055 24.4331L28.8081 21.9012V13.2612L31.992 15.0947L36.3895 17.6285V26.2599ZM37.1456 16.3101L29.566 11.9466L37.1456 7.5841L44.7233 11.9457L37.1456 16.3101ZM37.9016 26.2599V17.6285L42.3086 15.0947L45.4916 13.2612V21.8983L37.9016 26.2599Z" fill="#00ADB5"/>
</svg>
