<svg width="71" height="70" viewBox="0 0 71 70" fill="none" xmlns="http://www.w3.org/2000/svg">
<path d="M51.9509 65.628C51.6906 65.7658 51.7125 65.8095 51.9619 65.6826C52.0428 65.6498 52.1106 65.6039 52.1697 65.5492C52.1697 65.5033 52.1697 65.5033 51.9509 65.628ZM52.4759 65.3436C52.3512 65.4464 52.3512 65.4464 52.5 65.3786C52.5787 65.3326 52.6487 65.2889 52.6487 65.2758C52.6487 65.2167 52.6137 65.2298 52.4759 65.3436ZM52.8172 65.138C52.6925 65.2408 52.6925 65.2408 52.8412 65.173C52.9222 65.127 52.99 65.0789 52.99 65.068C52.99 65.0133 52.955 65.0242 52.8172 65.138ZM53.1628 64.9345C53.0381 65.0373 53.0381 65.0373 53.1825 64.9673C53.2634 64.9236 53.3312 64.8776 53.3312 64.8645C53.3312 64.8098 53.2962 64.8208 53.1628 64.9345ZM53.6287 64.6261C53.3903 64.7858 53.3072 64.8886 53.5259 64.7748C53.6725 64.6851 53.9219 64.4883 53.8781 64.4883C53.7841 64.5233 53.7053 64.5823 53.6266 64.6261H53.6287ZM32.7097 0.0160782C32.55 0.0270157 32.0709 0.0707657 31.6509 0.105766C21.7022 1.00702 12.3944 6.36202 6.49469 14.6111C3.23312 19.1326 1.11562 24.3848 0.317187 29.8995C0.035 31.8245 0 32.3933 0 35.0029C0 37.6105 0.035 38.1705 0.317187 40.0955C2.2225 53.2445 11.5762 64.2826 24.255 68.3733C26.5366 69.1017 28.9275 69.6048 31.6509 69.9133C32.7097 70.027 37.2881 70.027 38.3469 69.9133C43.0544 69.3883 47.0291 68.2267 50.9622 66.2208C51.5659 65.9145 51.6797 65.8336 51.5987 65.7658C49.6737 63.2261 47.7837 60.6842 45.8916 58.1205L40.2981 50.567L33.2916 40.1873C30.9553 36.7136 28.6103 33.2486 26.2281 29.8098C26.2041 29.8098 26.1734 34.4233 26.1603 40.0495C26.1362 49.9042 26.1362 50.3045 26.0116 50.532C25.8869 50.8055 25.6812 51.033 25.4078 51.1598C25.1912 51.2626 24.9966 51.2845 23.9619 51.2845H22.7784L22.47 51.092C22.2775 50.9673 22.1178 50.7945 22.015 50.5911L21.8662 50.2826L21.8772 36.5648L21.9012 22.847L22.1178 22.5736C22.2556 22.4051 22.4262 22.2673 22.6187 22.1645C22.9053 22.0267 23.0191 22.0048 24.2025 22.0048C25.5916 22.0048 25.8212 22.0595 26.1866 22.4598C29.0216 26.6861 31.8478 30.9233 34.6281 35.1736C39.1759 42.0686 45.3841 51.477 48.4356 56.0926L53.9853 64.4905L54.2587 64.3089C56.9253 62.5305 59.3512 60.413 61.4447 57.998C65.8547 52.9492 68.7159 46.7389 69.685 40.1108C69.9672 38.1858 70.0022 37.6148 70.0022 35.0073C70.0022 32.3976 69.9672 31.8398 69.685 29.9148C67.7797 16.7658 58.4259 5.72764 45.7472 1.63483C43.3759 0.884516 40.9369 0.372641 38.4672 0.110141C37.8044 0.0423282 33.2806 -0.0386093 32.7119 0.0204532L32.7097 0.0160782ZM47.0312 21.1845C47.3616 21.342 47.6109 21.6395 47.7247 21.9808C47.7837 22.1645 47.7947 25.9686 47.7837 34.537L47.7597 46.8395L45.5962 43.5145L43.4197 40.1873V31.2558C43.4197 25.4655 43.4437 22.2192 43.4744 22.0595C43.5772 21.6942 43.8266 21.388 44.1591 21.1955C44.4303 21.0576 44.5353 21.0467 45.6181 21.0467C46.6309 21.0467 46.8037 21.0576 47.0312 21.1845Z" fill="#00ADB5"/>
</svg>
