<svg width="70" height="38" viewBox="0 0 70 38" fill="none" xmlns="http://www.w3.org/2000/svg">
<path d="M20.1742 13.8384H17.4574L15.9753 21.4591H18.387C19.9871 21.4591 21.1786 21.157 21.9614 20.5555C22.7442 19.9511 23.2708 18.9467 23.5442 17.5365C23.809 16.1839 23.6881 15.2285 23.1874 14.673C22.6837 14.1176 21.6822 13.8384 20.1742 13.8384ZM34.535 0.83313C15.463 0.83313 0 8.96611 0 18.9985C0 29.0309 15.463 37.1668 34.535 37.1668C53.607 37.1668 69.07 29.0309 69.07 18.9985C69.07 8.96611 53.607 0.83313 34.535 0.83313ZM25.153 22.2765C24.4019 22.9959 23.4982 23.537 22.5139 23.8622C21.547 24.173 20.3123 24.3342 18.8158 24.3342H15.417L14.4759 29.1719H10.5102L14.05 10.9663H21.6765C23.9702 10.9663 25.6422 11.5677 26.6956 12.7736C27.7489 13.9766 28.0654 15.6573 27.6453 17.8157C27.4843 18.6698 27.188 19.4927 26.7675 20.2533C26.356 20.9872 25.8178 21.6635 25.153 22.2765ZM36.7337 24.3342L38.2964 16.2789C38.4777 15.3637 38.4087 14.7363 38.1007 14.4054C37.7928 14.0715 37.1338 13.9046 36.1236 13.9046H32.9809L30.9549 24.3371H27.0179L30.5577 6.12849H34.4918L33.5508 10.9691H37.0561C39.2634 10.9691 40.783 11.3548 41.6204 12.1232C42.4579 12.8916 42.7083 14.1377 42.3773 15.8616L40.7312 24.3342H36.7337ZM58.5973 17.8157C58.4389 18.6705 58.1425 19.4938 57.7195 20.2533C57.308 20.9872 56.7698 21.6635 56.105 22.2765C55.3534 22.9938 54.4521 23.5353 53.4659 23.8622C52.499 24.173 51.2643 24.3342 49.7649 24.3342H46.369L45.4279 29.1748H41.4621L45.002 10.9691H52.6256C54.9193 10.9691 56.5914 11.5706 57.6447 12.7765C58.698 13.9766 59.0174 15.6573 58.5973 17.8157ZM51.1291 13.8384H48.4152L46.9302 21.4591H49.3419C50.9449 21.4591 52.1363 21.157 52.9162 20.5555C53.699 19.9511 54.2257 18.9467 54.502 17.5365C54.7668 16.1839 54.643 15.2285 54.1422 14.673C53.6415 14.1176 52.6342 13.8384 51.1291 13.8384Z" fill="#00ADB5"/>
</svg>
