<svg width="70" height="64" viewBox="0 0 70 64" fill="none" xmlns="http://www.w3.org/2000/svg">
<path fill-rule="evenodd" clip-rule="evenodd" d="M24.8051 5.00605C22.9409 4.46523 21.5581 4.61027 20.5523 5.1551C19.5464 5.69998 18.6695 6.77892 18.1041 8.63578C17.5347 10.5061 17.3403 13.0031 17.617 16.0181C17.6619 16.5066 17.7188 17.0057 17.7878 17.5145C20.2294 16.8941 22.8532 16.404 25.6101 16.0619C27.5213 13.3842 29.526 10.9694 31.5598 8.87551C31.4579 8.79291 31.3561 8.71138 31.2545 8.63098C28.8804 6.75208 26.6827 5.55084 24.8051 5.00605ZM34.9997 5.66368C34.7164 5.42619 34.4333 5.19542 34.1505 4.97161C31.4813 2.85924 28.7478 1.29087 26.1054 0.524225C23.4494 -0.246367 20.723 -0.24472 18.3295 1.05177C15.9361 2.34824 14.4453 4.63094 13.6398 7.27657C12.8384 9.90866 12.6588 13.055 12.9699 16.4447C13.0429 17.2392 13.1433 18.0534 13.271 18.885C12.4791 19.1688 11.7153 19.4683 10.982 19.7825C7.85335 21.1234 5.17239 22.7799 3.2397 24.7383C1.2971 26.7066 0 29.1047 0 31.8267C0 34.5488 1.2971 36.9468 3.2397 38.9152C5.17239 40.8735 7.85335 42.53 10.982 43.8711C11.7153 44.1851 12.479 44.4847 13.271 44.7685C13.1433 45.6001 13.0428 46.4144 12.9698 47.2091C12.6587 50.5985 12.8383 53.7448 13.6397 56.3773C14.4452 59.0228 15.936 61.3053 18.3295 62.6017C20.7229 63.8985 23.4493 63.8999 26.1053 63.1295C28.7477 62.3627 31.4812 60.7943 34.1504 58.6821C34.4333 58.4581 34.7164 58.2276 34.9997 57.9901C35.283 58.2276 35.5662 58.4581 35.849 58.6821C38.5182 60.7943 41.2517 62.3627 43.8942 63.1295C46.5501 63.8999 49.2763 63.8985 51.6698 62.6017C54.0633 61.3053 55.5543 59.0228 56.3598 56.3773C57.1611 53.7448 57.3407 50.5985 57.0295 47.2091C56.9567 46.4144 56.8563 45.6001 56.7285 44.7685C57.5204 44.4847 58.2843 44.1851 59.0179 43.8711C62.1465 42.53 64.8275 40.8735 66.7604 38.9152C68.7027 36.9468 70 34.5488 70 31.8267C70 29.1047 68.7027 26.7066 66.7604 24.7383C64.8275 22.7799 62.1465 21.1234 59.0179 19.7825C58.2843 19.4682 57.5204 19.1687 56.7285 18.8849C56.8559 18.0533 56.9567 17.2391 57.0295 16.4447C57.3407 13.055 57.1611 9.90866 56.3598 7.27657C55.5543 4.63094 54.0633 2.34824 51.6698 1.05177C49.2763 -0.24472 46.55 -0.246367 43.8941 0.524225C41.2516 1.29087 38.5181 2.85924 35.8489 4.97161C35.5661 5.19542 35.283 5.42619 34.9997 5.66368ZM34.9997 12.0321C33.9506 13.1062 32.9007 14.2835 31.8626 15.5552C32.897 15.5143 33.9435 15.4934 35 15.4934C36.0563 15.4934 37.1026 15.5143 38.1367 15.5552C37.0987 14.2835 36.0488 13.1062 34.9997 12.0321ZM44.3893 16.0618C42.4781 13.3841 40.4734 10.9694 38.4397 8.87551C38.5416 8.79291 38.6433 8.71138 38.745 8.63098C41.1191 6.75208 43.3167 5.55084 45.1944 5.00605C47.0587 4.46523 48.4414 4.61027 49.4471 5.1551C50.4532 5.69998 51.3301 6.77892 51.8952 8.63578C52.4645 10.5061 52.6591 13.0031 52.3824 16.0181C52.3376 16.5066 52.2807 17.0056 52.2116 17.5144C49.77 16.894 47.1464 16.4039 44.3893 16.0618ZM41.7636 20.4703C39.592 20.2677 37.3291 20.1601 35 20.1601C32.6706 20.1601 30.4076 20.2677 28.2358 20.4703C27.0232 22.2834 25.8507 24.222 24.7413 26.2701C23.731 28.1352 22.8254 29.9944 22.0251 31.8267C22.8255 33.6591 23.7311 35.5184 24.7414 37.3836C25.8508 39.4316 27.0233 41.3701 28.2357 43.1832C30.4075 43.3857 32.6706 43.4935 35 43.4935C37.3292 43.4935 39.592 43.3857 41.7637 43.1832C42.9762 41.3702 44.1486 39.4316 45.258 37.3836C46.2683 35.5184 47.1739 33.6591 47.9743 31.8267C47.1739 29.9945 46.2684 28.1352 45.2581 26.2701C44.1487 24.2219 42.9762 22.2834 41.7636 20.4703ZM50.2731 25.7811C49.9781 25.2031 49.6743 24.625 49.3617 24.0474C48.8581 23.1185 48.3415 22.2082 47.8128 21.3183C49.0289 21.5498 50.2007 21.8128 51.3231 22.1043C51.0281 23.2985 50.6781 24.5267 50.2731 25.7811ZM50.2731 37.8724C49.9781 38.4504 49.6743 39.0286 49.3612 39.6063C48.8581 40.5351 48.3415 41.4452 47.8128 42.3352C49.0289 42.1036 50.2007 41.8406 51.3231 41.549C51.0281 40.355 50.6781 39.1268 50.2731 37.8724ZM55.7821 40.1442C55.1054 37.467 54.1865 34.6719 53.0362 31.8267C54.1865 28.9816 55.1054 26.1864 55.7821 23.5092C56.2627 23.6909 56.7285 23.8786 57.1797 24.0719C59.9625 25.2645 62.0653 26.6248 63.4387 28.0163C64.8023 29.3978 65.3333 30.6827 65.3333 31.8267C65.3333 32.9707 64.8023 34.2556 63.4387 35.6371C62.0653 37.0287 59.9625 38.3889 57.1797 39.5815C56.7285 39.7748 56.2627 39.9625 55.7821 40.1442ZM52.2116 46.1391C49.77 46.7593 47.1464 47.2497 44.3894 47.5918C42.4782 50.2695 40.4734 52.6841 38.4397 54.778C38.5416 54.8606 38.6434 54.9423 38.745 55.0225C41.1192 56.9013 43.3168 58.103 45.1945 58.6476C47.0587 59.1885 48.4414 59.0433 49.4471 58.4987C50.4532 57.9537 51.3301 56.8747 51.8952 55.0179C52.465 53.1475 52.6591 50.6503 52.3824 47.6357C52.3376 47.1471 52.2807 46.6477 52.2116 46.1391ZM34.9997 51.6215C36.0488 50.5472 37.0987 49.3698 38.1368 48.0981C37.1027 48.1392 36.0563 48.1602 35 48.1602C33.9435 48.1602 32.897 48.1392 31.8626 48.0981C32.9007 49.3698 33.9506 50.5472 34.9997 51.6215ZM22.1865 42.335C21.6579 41.4452 21.1412 40.5351 20.6381 39.6063C20.3252 39.0286 20.0212 38.4504 19.7262 37.8724C19.3214 39.1267 18.9714 40.3549 18.6764 41.5489C19.7985 41.8405 20.9705 42.1035 22.1865 42.335ZM17.7878 46.1391C20.2293 46.7593 22.8531 47.2493 25.61 47.5913C27.5212 50.2691 29.526 52.6841 31.5598 54.778C31.4579 54.8606 31.356 54.9423 31.2544 55.0225C28.8803 56.9013 26.6826 58.103 24.805 58.6476C22.9408 59.1885 21.558 59.0433 20.5522 58.4987C19.5463 57.9537 18.6694 56.8747 18.1041 55.0179C17.5346 53.1475 17.3402 50.6503 17.6169 47.6357C17.6618 47.1471 17.7188 46.6477 17.7878 46.1391ZM14.2173 40.144C14.8939 37.4669 15.8127 34.6718 16.9631 31.8267C15.8127 28.9817 14.894 26.1866 14.2173 23.5094C13.7371 23.6911 13.2712 23.8787 12.8203 24.0719C10.0375 25.2645 7.93455 26.6248 6.56119 28.0163C5.19773 29.3978 4.66667 30.6827 4.66667 31.8267C4.66667 32.9707 5.19773 34.2556 6.56119 35.6371C7.93455 37.0287 10.0375 38.3889 12.8203 39.5815C13.2712 39.7748 13.7371 39.9624 14.2173 40.144ZM18.6764 22.1045C18.9714 23.2985 19.3214 24.5267 19.7262 25.7811C20.0211 25.2031 20.3251 24.625 20.638 24.0474C21.1411 23.1185 21.6579 22.2083 22.1866 21.3184C20.9706 21.5499 19.7985 21.813 18.6764 22.1045ZM28 31.8267C28 27.9607 31.134 24.8267 35 24.8267C38.866 24.8267 42 27.9607 42 31.8267C42 35.6927 38.866 38.8267 35 38.8267C31.134 38.8267 28 35.6927 28 31.8267ZM35 29.4934C33.7113 29.4934 32.6667 30.538 32.6667 31.8267C32.6667 33.1154 33.7113 34.1601 35 34.1601C36.2887 34.1601 37.3333 33.1154 37.3333 31.8267C37.3333 30.538 36.2887 29.4934 35 29.4934Z" fill="#00ADB5"/>
</svg>
