<svg width="70" height="44" viewBox="0 0 70 44" fill="none" xmlns="http://www.w3.org/2000/svg">
<path d="M57.75 13.285C55.1252 12.381 52.8083 10.7556 51.065 8.59504C49.1437 6.18785 46.6972 4.25202 43.9128 2.93562C41.1283 1.61922 38.0796 0.957148 35 1.00004C30.8573 0.706653 26.756 1.9844 23.513 4.57881C20.27 7.17323 18.1231 10.894 17.5 15C18.7274 12.9464 20.5746 11.3351 22.7759 10.398C24.9772 9.46083 27.419 9.24624 29.75 9.78504C32.3704 10.7154 34.6835 12.3503 36.435 14.51C38.3669 16.898 40.818 18.8138 43.6018 20.1118C46.3857 21.4097 49.4289 22.0555 52.5 22C56.6427 22.2934 60.744 21.0157 63.987 18.4213C67.23 15.8268 69.3769 12.1061 70 8.00004C68.7949 10.0782 66.9536 11.7139 64.7478 12.6655C62.542 13.6172 60.0887 13.8344 57.75 13.285ZM12.25 30.715C14.8748 31.6191 17.1917 33.2445 18.935 35.405C20.8563 37.8122 23.3028 39.7481 26.0872 41.0645C28.8717 42.3809 31.9204 43.0429 35 43C39.1427 43.2934 43.244 42.0157 46.487 39.4213C49.73 36.8268 51.8769 33.1061 52.5 29C51.2726 31.0537 49.4254 32.665 47.2241 33.6021C45.0228 34.5392 42.581 34.7538 40.25 34.215C37.6296 33.2847 35.3165 31.6498 33.565 29.49C31.628 27.108 29.1758 25.1964 26.3932 23.899C23.6105 22.6016 20.5699 21.9524 17.5 22C13.3573 21.7067 9.25604 22.9844 6.01302 25.5788C2.77 28.1732 0.623147 31.894 0 36C1.20507 33.9218 3.04643 32.2862 5.25222 31.3345C7.45801 30.3829 9.91133 30.1657 12.25 30.715Z" fill="#00ADB5"/>
</svg>
