<svg width="83" height="100" viewBox="0 0 83 100" fill="none" xmlns="http://www.w3.org/2000/svg">
<path d="M29.4505 46.6666H33.9691V52.3809H35.4752V35.238V33.3333H29.4505V35.238H33.9691V44.7618H29.4505V35.238H27.9443V52.3809H29.4505V46.6666Z" fill="#00ADB5"/>
<path d="M39.9939 46.6666H46.0186V35.238H44.5124V44.7618H39.9939V35.238H44.5124V33.3333H38.4877V52.3809H39.9939V46.6666Z" fill="#00ADB5"/>
<path d="M53.5494 50.4761H52.0432V35.238H53.5494V33.3333H49.0309V35.238H50.5371V50.4761H49.0309V52.3809H53.5494V50.4761Z" fill="#00ADB5"/>
<path d="M21.9197 7.48381V14.7429L29.4506 22.3619V27.6191H23.4259V33.3333H16.252L12.2289 27.1029C12.6326 26.4552 12.8826 25.6495 12.8826 24.7619C12.8826 22.659 11.5331 20.9524 9.87027 20.9524C8.20745 20.9524 6.85791 22.659 6.85791 24.7619C6.85791 26.8648 8.20745 28.5714 9.87027 28.5714C10.2845 28.5714 10.6806 28.4648 11.0391 28.2724L15.538 35.2381H23.4259V39.0476H14.077L11.3915 42.4438C10.9427 42.1086 10.4276 41.9048 9.87027 41.9048C8.20745 41.9048 6.85791 43.6114 6.85791 45.7143C6.85791 47.8172 8.20745 49.5238 9.87027 49.5238C11.5331 49.5238 12.8826 47.8172 12.8826 45.7143C12.8826 45.0095 12.7215 44.3581 12.4564 43.7905L14.7006 40.9524H23.4259V50.4762H14.077L11.3915 53.8724C10.9427 53.5372 10.4276 53.3333 9.87027 53.3333C8.20745 53.3333 6.85791 55.04 6.85791 57.1429C6.85791 59.2457 8.20745 60.9524 9.87027 60.9524C11.5331 60.9524 12.8826 59.2457 12.8826 57.1429C12.8826 56.4381 12.7215 55.7867 12.4564 55.2191L14.7006 52.381H23.4259V58.0952H29.4506V60C28.1538 60.4248 27.1913 61.9029 27.1913 63.6743C27.1913 65.7772 28.5409 67.4838 30.2037 67.4838C31.8665 67.4838 33.2161 65.7772 33.2161 63.6743C33.2161 61.9029 32.2536 60.4248 30.9568 60V58.0952H36.9815V60C35.6847 60.4248 34.7222 61.9029 34.7222 63.6743C34.7222 65.7772 36.0718 67.4838 37.7346 67.4838C39.3974 67.4838 40.747 65.7772 40.747 63.6743C40.747 61.9029 39.7845 60.4248 38.4877 60V58.0952H44.5124V60C43.2156 60.4248 42.2531 61.9029 42.2531 63.6743C42.2531 65.7772 43.6027 67.4838 45.2655 67.4838C46.9283 67.4838 48.2779 65.7772 48.2779 63.6743C48.2779 61.9029 47.3154 60.4248 46.0186 60V58.0952H52.0433V60C50.7465 60.4248 49.784 61.9029 49.784 63.6743C49.784 65.7772 51.1336 67.4838 52.7964 67.4838C54.4592 67.4838 55.8088 65.7772 55.8088 63.6743C55.8088 61.9029 54.8463 60.4248 53.5495 60V58.0952H59.5742V52.381H68.2995L70.5437 55.2191C70.2786 55.7867 70.1175 56.4381 70.1175 57.1429C70.1175 59.2457 71.467 60.9524 73.1298 60.9524C74.7926 60.9524 76.1422 59.2457 76.1422 57.1429C76.1422 55.04 74.7926 53.3333 73.1298 53.3333C72.5725 53.3333 72.0574 53.5372 71.6086 53.8724L68.9231 50.4762H59.5742V46.6667H68.917L71.2019 43.8552C71.7246 44.4133 72.3918 44.7619 73.1298 44.7619C74.7926 44.7619 76.1422 43.0552 76.1422 40.9524C76.1422 38.8495 74.7926 37.1429 73.1298 37.1429C71.467 37.1429 70.1175 38.8495 70.1175 40.9524C70.1175 41.4229 70.1943 41.8686 70.3178 42.2857L68.3055 44.7619H59.5742V35.2381H67.4621L71.9595 28.2724C72.3195 28.4648 72.7156 28.5714 73.1298 28.5714C74.7926 28.5714 76.1422 26.8648 76.1422 24.7619C76.1422 22.659 74.7926 20.9524 73.1298 20.9524C71.467 20.9524 70.1175 22.659 70.1175 24.7619C70.1175 25.6495 70.3675 26.4552 70.7711 27.1029L66.7481 33.3333H59.5742V27.6191H53.5495V22.3619L61.0804 14.7429V7.48381C62.3772 7.05905 63.3397 5.58095 63.3397 3.80952C63.3397 1.70667 61.9901 0 60.3273 0C58.6645 0 57.3149 1.70667 57.3149 3.80952C57.3149 5.58095 58.2774 7.05905 59.5742 7.48381V13.8286L52.0433 21.4476V27.6191H46.0186V18.56L53.5495 11.099V7.48381C54.8463 7.05905 55.8088 5.58095 55.8088 3.80952C55.8088 1.70667 54.4592 0 52.7964 0C51.1336 0 49.784 1.70667 49.784 3.80952C49.784 5.58095 50.7465 7.05905 52.0433 7.48381V10.1714L44.5124 17.6324V27.6191H38.4877V17.6305L30.9568 10.1714V7.48381C32.2536 7.05905 33.2161 5.58095 33.2161 3.80952C33.2161 1.70667 31.8665 0 30.2037 0C28.5409 0 27.1913 1.70667 27.1913 3.80952C27.1913 5.58095 28.1538 7.05905 29.4506 7.48381V11.099L36.9815 18.56V27.6191H30.9568V21.4476L23.4259 13.8286V7.48381C24.7227 7.05905 25.6852 5.58095 25.6852 3.80952C25.6852 1.70667 24.3356 0 22.6728 0C21.01 0 19.6604 1.70667 19.6604 3.80952C19.6604 5.58095 20.6229 7.05905 21.9197 7.48381ZM9.87027 26.6667C9.03886 26.6667 8.36409 25.8133 8.36409 24.7619C8.36409 23.7105 9.03886 22.8571 9.87027 22.8571C10.7017 22.8571 11.3765 23.7105 11.3765 24.7619C11.3765 25.8133 10.7017 26.6667 9.87027 26.6667ZM9.87027 47.6191C9.03886 47.6191 8.36409 46.7657 8.36409 45.7143C8.36409 44.6629 9.03886 43.8095 9.87027 43.8095C10.7017 43.8095 11.3765 44.6629 11.3765 45.7143C11.3765 46.7657 10.7017 47.6191 9.87027 47.6191ZM9.87027 59.0476C9.03886 59.0476 8.36409 58.1943 8.36409 57.1429C8.36409 56.0914 9.03886 55.2381 9.87027 55.2381C10.7017 55.2381 11.3765 56.0914 11.3765 57.1429C11.3765 58.1943 10.7017 59.0476 9.87027 59.0476ZM73.1298 55.2381C73.9612 55.2381 74.636 56.0914 74.636 57.1429C74.636 58.1943 73.9612 59.0476 73.1298 59.0476C72.2984 59.0476 71.6236 58.1943 71.6236 57.1429C71.6236 56.0914 72.2984 55.2381 73.1298 55.2381ZM73.1298 39.0476C73.9612 39.0476 74.636 39.901 74.636 40.9524C74.636 42.0038 73.9612 42.8571 73.1298 42.8571C72.2984 42.8571 71.6236 42.0038 71.6236 40.9524C71.6236 39.901 72.2984 39.0476 73.1298 39.0476ZM73.1298 22.8571C73.9612 22.8571 74.636 23.7105 74.636 24.7619C74.636 25.8133 73.9612 26.6667 73.1298 26.6667C72.2984 26.6667 71.6236 25.8133 71.6236 24.7619C71.6236 23.7105 72.2984 22.8571 73.1298 22.8571ZM58.8211 3.80952C58.8211 2.7581 59.4959 1.90476 60.3273 1.90476C61.1587 1.90476 61.8335 2.7581 61.8335 3.80952C61.8335 4.86095 61.1587 5.71429 60.3273 5.71429C59.4959 5.71429 58.8211 4.86095 58.8211 3.80952ZM51.2902 3.80952C51.2902 2.7581 51.965 1.90476 52.7964 1.90476C53.6278 1.90476 54.3026 2.7581 54.3026 3.80952C54.3026 4.86095 53.6278 5.71429 52.7964 5.71429C51.965 5.71429 51.2902 4.86095 51.2902 3.80952ZM28.6975 3.80952C28.6975 2.7581 29.3723 1.90476 30.2037 1.90476C31.0351 1.90476 31.7099 2.7581 31.7099 3.80952C31.7099 4.86095 31.0351 5.71429 30.2037 5.71429C29.3723 5.71429 28.6975 4.86095 28.6975 3.80952ZM31.7099 63.6743C31.7099 64.7257 31.0351 65.5791 30.2037 65.5791C29.3723 65.5791 28.6975 64.7257 28.6975 63.6743C28.6975 62.6229 29.3723 61.7695 30.2037 61.7695C31.0351 61.7695 31.7099 62.6229 31.7099 63.6743ZM39.2408 63.6743C39.2408 64.7257 38.566 65.5791 37.7346 65.5791C36.9032 65.5791 36.2284 64.7257 36.2284 63.6743C36.2284 62.6229 36.9032 61.7695 37.7346 61.7695C38.566 61.7695 39.2408 62.6229 39.2408 63.6743ZM46.7717 63.6743C46.7717 64.7257 46.0969 65.5791 45.2655 65.5791C44.4341 65.5791 43.7593 64.7257 43.7593 63.6743C43.7593 62.6229 44.4341 61.7695 45.2655 61.7695C46.0969 61.7695 46.7717 62.6229 46.7717 63.6743ZM54.3026 63.6743C54.3026 64.7257 53.6278 65.5791 52.7964 65.5791C51.965 65.5791 51.2902 64.7257 51.2902 63.6743C51.2902 62.6229 51.965 61.7695 52.7964 61.7695C53.6278 61.7695 54.3026 62.6229 54.3026 63.6743ZM58.068 29.5238V33.3333V35.2381V44.7619V46.6667V50.4762V52.381V56.1905H24.9321V52.381V50.4762V40.9524V39.0476V35.2381V33.3333V29.5238H58.068ZM22.6728 1.90476C23.5042 1.90476 24.179 2.7581 24.179 3.80952C24.179 4.86095 23.5042 5.71429 22.6728 5.71429C21.8414 5.71429 21.1666 4.86095 21.1666 3.80952C21.1666 2.7581 21.8414 1.90476 22.6728 1.90476Z" fill="#00ADB5"/>
<path d="M79.1545 10.4762H62.5865V12.381H79.1545C79.9844 12.381 80.6607 13.2362 80.6607 14.2857V75.2381H2.33931V14.2857C2.33931 13.2362 3.01558 12.381 3.84549 12.381H20.4135V10.4762H3.84549C2.18869 10.4762 0.83313 12.1905 0.83313 14.2857V75.2381V75.7867V80.9524C0.83313 83.0476 2.18869 84.7619 3.84549 84.7619H32.0321L29.8798 94.2857H24.932C23.2692 94.2857 21.9196 95.9924 21.9196 98.0952V100H61.0803V98.0952C61.0803 95.9924 59.7308 94.2857 58.068 94.2857H53.1187L50.9663 84.7619H79.1545C80.8113 84.7619 82.1668 83.0476 82.1668 80.9524V76.8095V75.2381V14.2857C82.1668 12.1905 80.8113 10.4762 79.1545 10.4762ZM53.5494 96.1905H58.068C58.8979 96.1905 59.5741 97.0457 59.5741 98.0952H23.4258C23.4258 97.0457 24.1021 96.1905 24.932 96.1905H29.4505H53.5494ZM51.5522 94.2857H31.4477L33.6001 84.7619H49.4014L51.5522 94.2857ZM80.6607 80.9524C80.6607 82.0019 79.9844 82.8571 79.1545 82.8571H50.5371H32.4629H3.84549C3.01558 82.8571 2.33931 82.0019 2.33931 80.9524V77.1429H80.6607V80.9524Z" fill="#00ADB5"/>
<path d="M24.932 10.4762V12.381H28.3013L27.9444 12.0267V10.4762H24.932Z" fill="#00ADB5"/>
<path d="M47.3695 12.381L49.2929 10.4762H33.7069L35.6303 12.381H47.3695Z" fill="#00ADB5"/>
<path d="M58.0679 10.4762H55.0556V12.0267L54.6986 12.381H58.0679V10.4762Z" fill="#00ADB5"/>
<path d="M43.5241 16.1905L45.4475 14.2858H37.5521L39.4755 16.1905H43.5241Z" fill="#00ADB5"/>
<path d="M3.84546 14.2858V71.4286H79.1545V14.2858H62.5865V15.6591L62.0608 16.1905H77.6483V69.5239H5.35164V16.1905H20.9391L20.4134 15.6591V14.2858H3.84546Z" fill="#00ADB5"/>
<path d="M32.148 16.1905L30.2246 14.2858H26.2889L28.1717 16.1905H32.148Z" fill="#00ADB5"/>
<path d="M50.8518 16.1905H54.8281L56.7108 14.2858H52.7752L50.8518 16.1905Z" fill="#00ADB5"/>
</svg>
