<svg width="101" height="100" viewBox="0 0 101 100" fill="none" xmlns="http://www.w3.org/2000/svg">
<path d="M36.47 54.7199C39.0588 54.7199 41.1575 52.6212 41.1575 50.0324C41.1575 47.4436 39.0588 45.3449 36.47 45.3449C33.8811 45.3449 31.7825 47.4436 31.7825 50.0324C31.7825 52.6212 33.8811 54.7199 36.47 54.7199Z" fill="#00ADB5"/>
<path d="M50.5325 54.7199C53.1213 54.7199 55.22 52.6212 55.22 50.0324C55.22 47.4436 53.1213 45.3449 50.5325 45.3449C47.9436 45.3449 45.845 47.4436 45.845 50.0324C45.845 52.6212 47.9436 54.7199 50.5325 54.7199Z" fill="#00ADB5"/>
<path d="M64.595 54.7199C67.1838 54.7199 69.2825 52.6212 69.2825 50.0324C69.2825 47.4436 67.1838 45.3449 64.595 45.3449C62.0061 45.3449 59.9075 47.4436 59.9075 50.0324C59.9075 52.6212 62.0061 54.7199 64.595 54.7199Z" fill="#00ADB5"/>
<path d="M33.3124 76.5625C32.6967 76.5633 32.0869 76.4424 31.5181 76.2068C30.9493 75.9712 30.4326 75.6255 29.9978 75.1896L8.12275 53.3146C6.29209 51.484 6.29209 48.516 8.12275 46.6855L29.9978 24.8105C31.8284 22.9801 34.7962 22.9801 36.6269 24.8105C38.4571 26.641 38.4571 29.609 36.6269 31.4396L18.0665 50L36.6269 68.5603C38.4571 70.3908 38.4571 73.3588 36.6269 75.1894C36.1921 75.6254 35.6755 75.9711 35.1066 76.2067C34.5378 76.4424 33.9281 76.5633 33.3124 76.5625ZM67.6874 76.5625C68.3031 76.5633 68.9129 76.4424 69.4817 76.2068C70.0505 75.9712 70.5672 75.6255 71.0021 75.1896L92.8771 53.3146C94.7077 51.484 94.7077 48.516 92.8771 46.6855L71.0021 24.8105C69.1714 22.9801 66.2036 22.9801 64.373 24.8105C62.5427 26.641 62.5427 29.609 64.373 31.4396L82.9333 50L64.373 68.5603C62.5427 70.3908 62.5427 73.3588 64.373 75.1894C64.8077 75.6254 65.3244 75.9711 65.8932 76.2067C66.462 76.4424 67.0717 76.5633 67.6874 76.5625Z" fill="#00ADB5"/>
</svg>
