<svg width="101" height="100" viewBox="0 0 101 100" fill="none" xmlns="http://www.w3.org/2000/svg">
<path d="M95.8125 6.25H5.1875C4.7731 6.25 4.37567 6.41462 4.08265 6.70765C3.78962 7.00067 3.625 7.3981 3.625 7.8125V78.125C3.625 78.5394 3.78962 78.9368 4.08265 79.2299C4.37567 79.5229 4.7731 79.6875 5.1875 79.6875H20.8125V95.3125C20.8125 95.7269 20.9771 96.1243 21.2701 96.4174C21.5632 96.7104 21.9606 96.875 22.375 96.875H69.25C69.6644 96.875 70.0618 96.7104 70.3549 96.4174C70.6479 96.1243 70.8125 95.7269 70.8125 95.3125V92.1875H75.5C75.9144 92.1875 76.3118 92.0229 76.6049 91.7299C76.8979 91.4368 77.0625 91.0394 77.0625 90.625V79.6875H95.8125C96.2269 79.6875 96.6243 79.5229 96.9174 79.2299C97.2104 78.9368 97.375 78.5394 97.375 78.125V7.8125C97.375 7.3981 97.2104 7.00067 96.9174 6.70765C96.6243 6.41462 96.2269 6.25 95.8125 6.25ZM6.75 9.375H94.25V18.75H6.75V9.375ZM23.9375 93.75V34.375H55.1875V45.3125C55.1875 45.7269 55.3521 46.1243 55.6451 46.4174C55.9382 46.7104 56.3356 46.875 56.75 46.875H67.6875V57.7016L52.2516 73.1375C52.0796 73.3086 51.9506 73.518 51.875 73.7484L47.4563 87.0062C47.3781 87.241 47.3567 87.491 47.3941 87.7356C47.4314 87.9802 47.5262 88.2125 47.6709 88.4133C47.8155 88.6141 48.0058 88.7776 48.226 88.8905C48.4462 89.0034 48.6901 89.0623 48.9375 89.0625C49.1053 89.0622 49.2719 89.0354 49.4312 88.9828L62.6875 84.5625C62.9174 84.4859 63.1261 84.3564 63.2969 84.1844L67.6875 79.7984V93.75H23.9375ZM63.3125 79.75L62.1766 78.6453C62.0117 78.4822 61.8126 78.3578 61.5937 78.2812L60.6766 77.9688L77.6641 60.9828L79.875 63.1938L63.3125 79.75ZM58.3125 36.5844L65.4781 43.75H58.3125V36.5844ZM73.2437 56.5625L75.4547 58.7719L58.4594 75.7688L58.1469 74.8516C58.0711 74.6212 57.9421 74.4119 57.7703 74.2406L56.6656 73.1359L73.2437 56.5625ZM52.3828 82.1063L54.3312 84.0625L51.4078 85.0375L52.3828 82.1063ZM57.6453 82.95L53.4875 78.7922L54.5922 75.4766L55.3063 76.1906L56.2953 79.1594C56.372 79.3893 56.5012 79.5982 56.6726 79.7696C56.844 79.941 57.0529 80.0701 57.2828 80.1469L60.2516 81.1391L60.975 81.8406L57.6453 82.95ZM82.0828 60.9844L75.4531 54.3531L77.6641 52.1438L84.2937 58.7734L82.0828 60.9844ZM86.5031 56.5625L79.875 49.9344L80.9797 48.8297C81.8588 47.9505 83.0512 47.4566 84.2945 47.4566C85.5378 47.4566 86.7302 47.9505 87.6094 48.8297C88.4885 49.7088 88.9824 50.9012 88.9824 52.1445C88.9824 53.3878 88.4885 54.5802 87.6094 55.4594L86.5031 56.5625ZM73.9375 51.4516L70.8125 54.5766V45.3125C70.8124 44.8981 70.6477 44.5008 70.3547 44.2078L57.8547 31.7078C57.5617 31.4148 57.1644 31.2501 56.75 31.25H28.625V28.125H73.9375V51.4516ZM70.8125 89.0625V76.6734L73.9375 73.5484V89.0625H70.8125ZM77.0625 76.5625V70.4234L89.8172 57.6688C91.2717 56.2014 92.0858 54.2177 92.0813 52.1516C92.0767 50.0855 91.254 48.1054 89.793 46.6445C88.3321 45.1835 86.352 44.3608 84.2859 44.3562C82.2198 44.3517 80.2361 45.1658 78.7687 46.6203L77.0625 48.3266V26.5625C77.0625 26.1481 76.8979 25.7507 76.6049 25.4576C76.3118 25.1646 75.9144 25 75.5 25H27.0625C26.6481 25 26.2507 25.1646 25.9576 25.4576C25.6646 25.7507 25.5 26.1481 25.5 26.5625V31.25H22.375C21.9606 31.25 21.5632 31.4146 21.2701 31.7076C20.9771 32.0007 20.8125 32.3981 20.8125 32.8125V76.5625H6.75V21.875H94.25V76.5625H77.0625Z" fill="#00ADB5"/>
<path d="M9.875 12.5H13V15.625H9.875V12.5ZM16.125 12.5H19.25V15.625H16.125V12.5ZM22.375 12.5H25.5V15.625H22.375V12.5ZM30.6453 52.6672L32.8547 50.4578L30.8344 48.4375L32.8547 46.4172L30.6453 44.2078L27.5203 47.3328C27.2274 47.6258 27.0628 48.0232 27.0628 48.4375C27.0628 48.8518 27.2274 49.2492 27.5203 49.5422L30.6453 52.6672ZM35.1875 50.625L39.875 44.375L42.375 46.25L37.6875 52.5L35.1875 50.625ZM46.9172 52.6672L50.0422 49.5422C50.3351 49.2492 50.4997 48.8518 50.4997 48.4375C50.4997 48.0232 50.3351 47.6258 50.0422 47.3328L46.9172 44.2078L44.7078 46.4172L46.7281 48.4375L44.7078 50.4578L46.9172 52.6672ZM27.0625 56.25H33.3125V59.375H27.0625V56.25ZM36.4375 56.25H48.9375V59.375H36.4375V56.25ZM30.1875 62.5H33.3125V65.625H30.1875V62.5ZM36.4375 62.5H44.25V65.625H36.4375V62.5ZM33.3125 68.75H39.5625V71.875H33.3125V68.75ZM42.6875 68.75H50.5V71.875H42.6875V68.75ZM47.375 62.5H55.1875V65.625H47.375V62.5ZM52.0625 56.25H55.1875V59.375H52.0625V56.25ZM52.0625 50H55.1875V53.125H52.0625V50Z" fill="#00ADB5"/>
</svg>
