<svg width="91" height="100" viewBox="0 0 91 100" fill="none" xmlns="http://www.w3.org/2000/svg">
<path d="M65.5 100H25.5C25.058 100 24.6341 99.8244 24.3215 99.5118C24.009 99.1993 23.8334 98.7754 23.8334 98.3333C23.8334 97.8913 24.009 97.4674 24.3215 97.1548C24.6341 96.8423 25.058 96.6667 25.5 96.6667H65.5C65.9421 96.6667 66.366 96.8423 66.6786 97.1548C66.9911 97.4674 67.1667 97.8913 67.1667 98.3333C67.1667 98.7754 66.9911 99.1993 66.6786 99.5118C66.366 99.8244 65.9421 100 65.5 100ZM80.5 0H10.5C10.058 0 9.63409 0.175595 9.32153 0.488155C9.00897 0.800716 8.83337 1.22464 8.83337 1.66667V13.3333H82.1667V1.66667C82.1667 1.22464 81.9911 0.800716 81.6786 0.488155C81.366 0.175595 80.9421 0 80.5 0ZM43.8334 8.33333H15.5C15.058 8.33333 14.6341 8.15774 14.3215 7.84518C14.009 7.53262 13.8334 7.10869 13.8334 6.66667C13.8334 6.22464 14.009 5.80072 14.3215 5.48816C14.6341 5.17559 15.058 5 15.5 5H43.8334C44.2754 5 44.6993 5.17559 45.0119 5.48816C45.3244 5.80072 45.5 6.22464 45.5 6.66667C45.5 7.10869 45.3244 7.53262 45.0119 7.84518C44.6993 8.15774 44.2754 8.33333 43.8334 8.33333ZM53.8334 10C53.1741 10 52.5296 9.8045 51.9815 9.43823C51.4333 9.07196 51.0061 8.55136 50.7538 7.94228C50.5015 7.33319 50.4355 6.66297 50.5641 6.01637C50.6927 5.36976 51.0102 4.77582 51.4764 4.30964C51.9425 3.84347 52.5365 3.526 53.1831 3.39738C53.8297 3.26876 54.4999 3.33478 55.109 3.58707C55.7181 3.83936 56.2387 4.2666 56.6049 4.81477C56.9712 5.36293 57.1667 6.0074 57.1667 6.66667C57.1667 7.55072 56.8155 8.39857 56.1904 9.02369C55.5653 9.64881 54.7174 10 53.8334 10ZM63.8334 10C63.1741 10 62.5296 9.8045 61.9815 9.43823C61.4333 9.07196 61.0061 8.55136 60.7538 7.94228C60.5015 7.33319 60.4355 6.66297 60.5641 6.01637C60.6927 5.36976 61.0102 4.77582 61.4764 4.30964C61.9425 3.84347 62.5365 3.526 63.1831 3.39738C63.8297 3.26876 64.4999 3.33478 65.109 3.58707C65.7181 3.83936 66.2387 4.2666 66.6049 4.81477C66.9712 5.36293 67.1667 6.0074 67.1667 6.66667C67.1667 7.55072 66.8155 8.39857 66.1904 9.02369C65.5653 9.64881 64.7174 10 63.8334 10ZM73.8334 10C73.1741 10 72.5296 9.8045 71.9815 9.43823C71.4333 9.07196 71.0061 8.55136 70.7538 7.94228C70.5015 7.33319 70.4355 6.66297 70.5641 6.01637C70.6927 5.36976 71.0102 4.77582 71.4764 4.30964C71.9425 3.84347 72.5365 3.526 73.1831 3.39738C73.8297 3.26876 74.4999 3.33478 75.109 3.58707C75.7181 3.83936 76.2387 4.2666 76.6049 4.81477C76.9712 5.36293 77.1667 6.0074 77.1667 6.66667C77.1667 7.55072 76.8155 8.39857 76.1904 9.02369C75.5653 9.64881 74.7174 10 73.8334 10ZM8.83337 16.6667V50C8.83337 50.442 9.00897 50.866 9.32153 51.1785C9.63409 51.4911 10.058 51.6667 10.5 51.6667H80.5C80.9421 51.6667 81.366 51.4911 81.6786 51.1785C81.9911 50.866 82.1667 50.442 82.1667 50V16.6667H8.83337ZM18.55 39.0833C18.7913 39.4508 18.8776 39.8986 18.7902 40.3294C18.7028 40.7602 18.4487 41.139 18.0834 41.3833C17.815 41.5713 17.4944 41.6704 17.1667 41.6667C16.8922 41.6652 16.6223 41.596 16.381 41.4652C16.1396 41.3344 15.9344 41.1459 15.7834 40.9167L12.45 35.9167C12.2708 35.6445 12.1753 35.3258 12.1753 35C12.1753 34.6742 12.2708 34.3555 12.45 34.0833L15.7834 29.0833C16.0439 28.7599 16.4157 28.5454 16.8261 28.4818C17.2365 28.4182 17.6558 28.5101 18.002 28.7395C18.3481 28.9689 18.5962 29.3193 18.6976 29.722C18.7989 30.1247 18.7463 30.5507 18.55 30.9167L15.8334 35L18.55 39.0833ZM27.1667 28.9667L23.8334 41.8667C23.7389 42.2334 23.5224 42.557 23.2194 42.7842C22.9165 43.0114 22.5452 43.1286 22.1667 43.1167C22.0283 43.1329 21.8885 43.1329 21.75 43.1167C21.5276 43.0684 21.3174 42.975 21.1324 42.8424C20.9474 42.7098 20.7915 42.5406 20.6744 42.3454C20.5572 42.1502 20.4813 41.9331 20.4514 41.7074C20.4214 41.4818 20.438 41.2523 20.5 41.0333L23.8334 28.1333C23.9439 27.7046 24.2202 27.3373 24.6015 27.1122C24.9828 26.8872 25.4379 26.8228 25.8667 26.9333C26.2955 27.0438 26.6628 27.3201 26.8878 27.7015C27.1129 28.0828 27.1772 28.5379 27.0667 28.9667H27.1667ZM35.2667 35.9167L31.9334 40.9167C31.7778 41.1531 31.5646 41.346 31.3138 41.4772C31.063 41.6084 30.783 41.6736 30.5 41.6667C30.1724 41.6704 29.8518 41.5713 29.5834 41.3833C29.218 41.139 28.964 40.7602 28.8766 40.3294C28.7892 39.8986 28.8755 39.4508 29.1167 39.0833L31.8334 35L29.1167 30.9167C28.9712 30.7361 28.8651 30.5271 28.8049 30.3031C28.7448 30.0791 28.7321 29.8451 28.7677 29.6159C28.8032 29.3868 28.8861 29.1675 29.0112 28.9722C29.1363 28.777 29.3007 28.6099 29.494 28.4818C29.6873 28.3537 29.9053 28.2674 30.1338 28.2283C30.3624 28.1892 30.5967 28.1983 30.8215 28.2549C31.0464 28.3115 31.257 28.4144 31.4399 28.5571C31.6227 28.6997 31.7738 28.879 31.8834 29.0833L35.2167 34.0833C35.3959 34.3555 35.4914 34.6742 35.4914 35C35.4914 35.3258 35.3959 35.6445 35.2167 35.9167H35.2667ZM78.8334 43.3333C78.8334 44.6594 78.3066 45.9312 77.3689 46.8689C76.4312 47.8065 75.1595 48.3333 73.8334 48.3333H45.5C44.174 48.3333 42.9022 47.8065 41.9645 46.8689C41.0268 45.9312 40.5 44.6594 40.5 43.3333V26.6667C40.5 25.3406 41.0268 24.0688 41.9645 23.1311C42.9022 22.1934 44.174 21.6667 45.5 21.6667H73.8334C75.1595 21.6667 76.4312 22.1934 77.3689 23.1311C78.3066 24.0688 78.8334 25.3406 78.8334 26.6667V43.3333Z" fill="#00ADB5"/>
<path d="M90.5 15V60H0.500048V15C0.494526 13.3821 0.96582 11.7984 1.85507 10.4467C2.74431 9.09509 4.01209 8.0354 5.50005 7.40002V50C5.50005 51.3261 6.02683 52.5979 6.96451 53.5356C7.9022 54.4732 9.17397 55 10.5 55H80.5C81.8261 55 83.0979 54.4732 84.0356 53.5356C84.9733 52.5979 85.5 51.3261 85.5 50V7.40002C86.988 8.0354 88.2558 9.09509 89.145 10.4467C90.0343 11.7984 90.5056 13.3821 90.5 15ZM60.3167 96.6667H30.6834L36.4 80H54.6L60.3167 96.6667Z" fill="#00ADB5"/>
<path d="M0.5 63.3333V68.3333C0.5 70.5435 1.37797 72.6631 2.94078 74.2259C4.50358 75.7887 6.6232 76.6667 8.83333 76.6667H82.1667C84.3768 76.6667 86.4964 75.7887 88.0592 74.2259C89.622 72.6631 90.5 70.5435 90.5 68.3333V63.3333H0.5ZM47.1667 71.6667H43.8333C43.3913 71.6667 42.9674 71.4911 42.6548 71.1785C42.3423 70.8659 42.1667 70.442 42.1667 70C42.1667 69.558 42.3423 69.134 42.6548 68.8215C42.9674 68.5089 43.3913 68.3333 43.8333 68.3333H47.1667C47.6087 68.3333 48.0326 68.5089 48.3452 68.8215C48.6577 69.134 48.8333 69.558 48.8333 70C48.8333 70.442 48.6577 70.8659 48.3452 71.1785C48.0326 71.4911 47.6087 71.6667 47.1667 71.6667ZM55.7167 45H46.1833L50.5 40.7333C50.6733 40.5544 50.8846 40.4166 51.1182 40.33C51.3519 40.2435 51.6019 40.2105 51.85 40.2333C52.0957 40.2603 52.3324 40.3416 52.5428 40.4713C52.7532 40.601 52.9322 40.7759 53.0667 40.9833L55.7167 45ZM73.45 45H59.7167L57.5833 41.7833L62.5833 35.7167C62.7382 35.5307 62.9318 35.3807 63.1505 35.277C63.3693 35.1734 63.608 35.1187 63.85 35.1167C64.0893 35.0975 64.3295 35.1394 64.5482 35.2385C64.7669 35.3376 64.9567 35.4907 65.1 35.6833L73.45 45Z" fill="#00ADB5"/>
<path d="M73.8334 25H45.5C45.058 25 44.6341 25.1756 44.3215 25.4882C44.009 25.8007 43.8334 26.2246 43.8334 26.6667V42.65L48.1 38.3333C48.6074 37.8308 49.2165 37.4428 49.8863 37.1954C50.5562 36.9481 51.2713 36.847 51.9834 36.8991C52.6956 36.9512 53.3884 37.1553 54.0151 37.4976C54.6418 37.8398 55.1879 38.3123 55.6167 38.8833L60.0667 33.55C60.5309 33.0024 61.1076 32.5611 61.7576 32.2563C62.4075 31.9514 63.1155 31.7901 63.8334 31.7833C64.538 31.7824 65.2348 31.9304 65.8782 32.2176C66.5216 32.5049 67.097 32.9248 67.5667 33.45L75.5 42.2833V26.6667C75.5 26.2246 75.3244 25.8007 75.0119 25.4882C74.6993 25.1756 74.2754 25 73.8334 25ZM52.1667 35C51.5074 35 50.863 34.8045 50.3148 34.4382C49.7666 34.072 49.3394 33.5514 49.0871 32.9423C48.8348 32.3332 48.7688 31.663 48.8974 31.0164C49.026 30.3698 49.3435 29.7758 49.8097 29.3096C50.2759 28.8435 50.8698 28.526 51.5164 28.3974C52.163 28.2688 52.8332 28.3348 53.4423 28.5871C54.0514 28.8394 54.572 29.2666 54.9383 29.8148C55.3045 30.3629 55.5 31.0074 55.5 31.6667C55.5 32.5507 55.1489 33.3986 54.5237 34.0237C53.8986 34.6488 53.0508 35 52.1667 35Z" fill="#00ADB5"/>
</svg>
