<svg width="101" height="100" viewBox="0 0 101 100" fill="none" xmlns="http://www.w3.org/2000/svg">
<path d="M3.83333 30H0.5V69.5833C0.501158 70.5775 0.896618 71.5307 1.59963 72.2337C2.30264 72.9367 3.25579 73.3322 4.25 73.3333H33.8333V76.3721C33.8362 77.4578 33.4523 78.5091 32.7505 79.3375C32.0487 80.1659 31.0748 80.7173 30.0033 80.8929L28.7075 81.1087C27.3439 81.3324 26.1045 82.0343 25.2113 83.0887C24.3182 84.1431 23.8297 85.4811 23.8333 86.8629V88.3333C23.8333 88.7754 24.0089 89.1993 24.3215 89.5118C24.634 89.8244 25.058 90 25.5 90H45.5V86.6667H27.1742C27.2166 86.1098 27.4448 85.5833 27.8223 85.1717C28.1997 84.7601 28.7045 84.4872 29.2556 84.3969L30.5515 84.181C32.4021 83.8776 34.0842 82.9251 35.2964 81.4942C36.5086 80.0633 37.1716 78.2474 37.1667 76.3721V73.3333H45.5V70H4.25C4.13949 70 4.03351 69.9561 3.95537 69.878C3.87723 69.7998 3.83333 69.6938 3.83333 69.5833V63.3333H45.5V60H3.83333V30Z" fill="#00ADB5"/>
<path d="M12.1667 13.3333H82.1667V31.6667H85.5V1.66667C85.5 1.22464 85.3244 0.800716 85.0118 0.488155C84.6993 0.175595 84.2754 0 83.8333 0H10.5C10.058 0 9.63405 0.175595 9.32149 0.488155C9.00893 0.800716 8.83333 1.22464 8.83333 1.66667V16.6667H4.25C3.25579 16.6678 2.30264 17.0633 1.59963 17.7663C0.896618 18.4693 0.501158 19.4225 0.5 20.4167V26.6667H3.83333V20.4167C3.83333 20.3062 3.87723 20.2002 3.95537 20.122C4.03351 20.0439 4.13949 20 4.25 20H8.83333V55C8.83333 55.442 9.00893 55.866 9.32149 56.1785C9.63405 56.4911 10.058 56.6667 10.5 56.6667H45.5V53.3333H12.1667V13.3333ZM82.1667 3.33333V10H12.1667V3.33333H82.1667Z" fill="#00ADB5"/>
<path d="M18.8333 5H15.5V8.33333H18.8333V5Z" fill="#00ADB5"/>
<path d="M25.5 5H22.1666V8.33333H25.5V5Z" fill="#00ADB5"/>
<path d="M32.1667 5H28.8334V8.33333H32.1667V5Z" fill="#00ADB5"/>
<path d="M78.8333 5H75.5V8.33333H78.8333V5Z" fill="#00ADB5"/>
<path d="M78.8333 23.3333V18.3333C78.8333 17.8913 78.6577 17.4673 78.3452 17.1548C78.0326 16.8422 77.6087 16.6666 77.1667 16.6666H72.1667V20H75.5V23.3333H78.8333ZM15.5 43.3333V48.3333C15.5 48.7753 15.6756 49.1992 15.9882 49.5118C16.3007 49.8244 16.7246 50 17.1667 50H22.1667V46.6666H18.8333V43.3333H15.5ZM52.1667 38.75C52.1667 38.6395 52.2106 38.5335 52.2887 38.4553C52.3668 38.3772 52.4728 38.3333 52.5833 38.3333H91.75C91.8605 38.3333 91.9665 38.3772 92.0446 38.4553C92.1228 38.5335 92.1667 38.6395 92.1667 38.75V50H95.5V38.75C95.4988 37.7558 95.1034 36.8026 94.4004 36.0996C93.6974 35.3966 92.7442 35.0011 91.75 35H52.5833C51.5891 35.0011 50.636 35.3966 49.933 36.0996C49.2299 36.8026 48.8345 37.7558 48.8333 38.75V91.25C48.8345 92.2442 49.2299 93.1973 49.933 93.9003C50.636 94.6033 51.5891 94.9988 52.5833 95H70.5V91.6666H52.5833C52.4728 91.6666 52.3668 91.6227 52.2887 91.5446C52.2106 91.4665 52.1667 91.3605 52.1667 91.25V86.6666H70.5V83.3333H52.1667V38.75Z" fill="#00ADB5"/>
<path d="M55.5 75V78.3333C55.5 78.7753 55.6756 79.1992 55.9882 79.5118C56.3007 79.8244 56.7246 80 57.1667 80H60.5V76.6666H58.8333V75H55.5ZM88.8333 46.6666V43.3333C88.8333 42.8913 88.6577 42.4673 88.3452 42.1548C88.0326 41.8422 87.6087 41.6666 87.1667 41.6666H83.8333V45H85.5V46.6666H88.8333ZM100.5 83.3333V57.0833C100.499 56.0891 100.103 55.1359 99.4004 54.4329C98.6974 53.7299 97.7442 53.3345 96.75 53.3333H77.5833C76.5891 53.3345 75.636 53.7299 74.933 54.4329C74.23 55.1359 73.8345 56.0891 73.8333 57.0833V96.25C73.8345 97.2442 74.23 98.1973 74.933 98.9003C75.636 99.6033 76.5891 99.9988 77.5833 100H96.75C97.7442 99.9988 98.6974 99.6033 99.4004 98.9003C100.103 98.1973 100.499 97.2442 100.5 96.25V86.6666H97.1667V96.25C97.1667 96.3605 97.1228 96.4664 97.0446 96.5446C96.9665 96.6227 96.8605 96.6666 96.75 96.6666H77.5833C77.4728 96.6666 77.3668 96.6227 77.2887 96.5446C77.2106 96.4664 77.1667 96.3605 77.1667 96.25V57.0833C77.1667 56.9728 77.2106 56.8668 77.2887 56.7887C77.3668 56.7105 77.4728 56.6666 77.5833 56.6666H96.75C96.8605 56.6666 96.9665 56.7105 97.0446 56.7887C97.1228 56.8668 97.1667 56.9728 97.1667 57.0833V83.3333H100.5Z" fill="#00ADB5"/>
<path d="M88.8333 91.6666H85.5V95H88.8333V91.6666Z" fill="#00ADB5"/>
<path d="M83.3452 70.4882L80.988 72.8453L90.988 82.8453L93.3452 80.4881L83.3452 70.4882Z" fill="#00ADB5"/>
<path d="M90.0118 68.8214L87.6547 71.1786L92.6546 76.1786L95.0118 73.8214L90.0118 68.8214Z" fill="#00ADB5"/>
</svg>
