<svg width="101" height="100" viewBox="0 0 101 100" fill="none" xmlns="http://www.w3.org/2000/svg">
<g clip-path="url(#clip0_59_35)">
<path d="M93.3906 2.35938H7.60938C3.6875 2.35938 0.5 5.54688 0.5 9.46875V90.5469C0.5 94.4688 3.6875 97.6562 7.60938 97.6562H93.3906C97.3125 97.6562 100.5 94.4688 100.5 90.5469V9.46875C100.5 5.54688 97.3125 2.35938 93.3906 2.35938ZM96.0156 90.5312C96.0156 91.9844 94.8438 93.1562 93.3906 93.1562H7.60938C6.15625 93.1562 4.98438 91.9844 4.98438 90.5312V20.8281H96.0312V90.5312H96.0156ZM96.0156 16.3438H4.98438V9.46875C4.98438 8.01563 6.15625 6.84375 7.60938 6.84375H93.3906C94.8438 6.84375 96.0156 8.01563 96.0156 9.46875V16.3438Z" fill="#00ADB5"/>
<path d="M10.9062 9.35938C9.65625 9.35938 8.65625 10.3594 8.65625 11.5938C8.65625 12.8281 9.67188 13.8281 10.9062 13.8281C11.4988 13.8281 12.0672 13.5927 12.4862 13.1737C12.9052 12.7547 13.1406 12.1863 13.1406 11.5938C13.1406 11.0012 12.9052 10.4328 12.4862 10.0138C12.0672 9.59478 11.4988 9.35938 10.9062 9.35938ZM18.8125 9.35938C17.5625 9.35938 16.5625 10.3594 16.5625 11.5938C16.5625 12.8281 17.5781 13.8281 18.8125 13.8281C19.4051 13.8281 19.9734 13.5927 20.3924 13.1737C20.8115 12.7547 21.0469 12.1863 21.0469 11.5938C21.0469 11.0012 20.8115 10.4328 20.3924 10.0138C19.9734 9.59478 19.4051 9.35938 18.8125 9.35938ZM26.7188 9.35938C25.4688 9.35938 24.4688 10.3594 24.4688 11.5938C24.4688 12.8281 25.4844 13.8281 26.7188 13.8281C27.9531 13.8281 28.9531 12.8281 28.9531 11.5938C28.9687 10.3594 27.9688 9.35938 26.7188 9.35938ZM44.3125 64.375H60.9687C62.2031 64.375 63.2031 63.375 63.2031 62.1406V45.4688C63.2031 44.2344 62.2031 43.2344 60.9687 43.2344H44.3125C43.0781 43.2344 42.0781 44.2344 42.0781 45.4688V62.125C42.0781 63.3594 43.0781 64.375 44.3125 64.375ZM46.5469 47.7188H58.7187V59.8906H46.5469V47.7188ZM70.0156 64.375H86.6719C87.9062 64.375 88.9062 63.375 88.9062 62.1406V45.4688C88.9062 44.2344 87.9062 43.2344 86.6719 43.2344H70.0156C68.7812 43.2344 67.7812 44.2344 67.7812 45.4688V62.125C67.7812 63.3594 68.7812 64.375 70.0156 64.375ZM72.2656 47.7188H84.4375V59.8906H72.2656V47.7188ZM61.3906 67.1094H43.8906C43.298 67.1094 42.7297 67.3448 42.3107 67.7638C41.8917 68.1828 41.6562 68.7512 41.6562 69.3438C41.6562 69.9363 41.8917 70.5047 42.3107 70.9237C42.7297 71.3427 43.298 71.5781 43.8906 71.5781H61.375C62.6094 71.5781 63.6094 70.5781 63.6094 69.3438C63.6094 68.1094 62.625 67.1094 61.3906 67.1094ZM61.3906 75.3281H43.8906C43.298 75.3281 42.7297 75.5635 42.3107 75.9826C41.8917 76.4016 41.6562 76.9699 41.6562 77.5625C41.6562 78.1551 41.8917 78.7234 42.3107 79.1424C42.7297 79.5615 43.298 79.7969 43.8906 79.7969H61.375C62.6094 79.7969 63.6094 78.7969 63.6094 77.5625C63.6094 76.3281 62.625 75.3281 61.3906 75.3281ZM61.3906 83.5469H43.8906C43.298 83.5469 42.7297 83.7823 42.3107 84.2013C41.8917 84.6203 41.6562 85.1887 41.6562 85.7813C41.6562 86.3738 41.8917 86.9422 42.3107 87.3612C42.7297 87.7802 43.298 88.0156 43.8906 88.0156H61.375C62.6094 88.0156 63.6094 87.0156 63.6094 85.7813C63.6094 84.5469 62.625 83.5469 61.3906 83.5469ZM87.0937 67.1094H69.5937C69.0012 67.1094 68.4328 67.3448 68.0138 67.7638C67.5948 68.1828 67.3594 68.7512 67.3594 69.3438C67.3594 69.9363 67.5948 70.5047 68.0138 70.9237C68.4328 71.3427 69.0012 71.5781 69.5937 71.5781H87.0781C88.3125 71.5781 89.3125 70.5781 89.3125 69.3438C89.3125 68.1094 88.3281 67.1094 87.0937 67.1094ZM87.0937 75.3281H69.5937C69.0012 75.3281 68.4328 75.5635 68.0138 75.9826C67.5948 76.4016 67.3594 76.9699 67.3594 77.5625C67.3594 78.1551 67.5948 78.7234 68.0138 79.1424C68.4328 79.5615 69.0012 79.7969 69.5937 79.7969H87.0781C88.3125 79.7969 89.3125 78.7969 89.3125 77.5625C89.3125 76.3281 88.3281 75.3281 87.0937 75.3281ZM87.0937 83.5469H69.5937C69.0012 83.5469 68.4328 83.7823 68.0138 84.2013C67.5948 84.6203 67.3594 85.1887 67.3594 85.7813C67.3594 86.3738 67.5948 86.9422 68.0138 87.3612C68.4328 87.7802 69.0012 88.0156 69.5937 88.0156H87.0781C88.3125 88.0156 89.3125 87.0156 89.3125 85.7813C89.3125 84.5469 88.3281 83.5469 87.0937 83.5469ZM23.7812 66.9688C17.5781 66.9688 12.5312 72.0156 12.5312 78.2188C12.5312 84.4219 17.5781 89.4687 23.7812 89.4687C29.9844 89.4687 35.0312 84.4219 35.0312 78.2188C35.0312 72.0156 29.9844 66.9688 23.7812 66.9688ZM23.7812 84.9844C20.0469 84.9844 17.0156 81.9531 17.0156 78.2188C17.0156 74.4844 20.0469 71.4531 23.7812 71.4531C25.577 71.4531 27.2995 72.1654 28.5708 73.4338C29.8421 74.7021 30.5584 76.423 30.5625 78.2188C30.5555 80.0136 29.8383 81.7328 28.5676 83.0005C27.297 84.2683 25.5762 84.9815 23.7812 84.9844ZM10.1562 60.1406C10.1719 60.2188 10.1875 60.2812 10.2031 60.3437C10.2188 60.4062 10.2344 60.4844 10.2656 60.5469C10.2969 60.6094 10.3281 60.6875 10.3594 60.75C10.3906 60.8125 10.4219 60.875 10.4688 60.9375C10.5156 61 10.5625 61.0625 10.6094 61.1094C10.6562 61.1563 10.6875 61.2188 10.75 61.2656C10.8125 61.3281 10.875 61.3906 10.9531 61.4375C10.9844 61.4688 11.0156 61.5 11.0625 61.5312C11.0625 61.5312 11.0781 61.5313 11.0781 61.5469C11.285 61.6882 11.5114 61.7987 11.75 61.875C11.9375 61.9219 12.1406 61.9687 12.3438 61.9687H35.6562C35.9027 61.9692 36.1469 61.9214 36.375 61.8281C36.5781 61.7656 36.7656 61.6719 36.9219 61.5469C36.9219 61.5469 36.9375 61.5469 36.9375 61.5312C36.9844 61.5 37.0156 61.4688 37.0469 61.4375C37.1094 61.375 37.1875 61.3281 37.25 61.2656C37.2964 61.2175 37.3382 61.1652 37.375 61.1094C37.4219 61.0469 37.4688 61 37.5156 60.9219C37.5469 60.8594 37.5781 60.7969 37.625 60.7344C37.6562 60.6719 37.6875 60.6094 37.7187 60.5312C37.75 60.4688 37.7656 60.3906 37.7812 60.3281C37.7969 60.2656 37.8281 60.1875 37.8437 60.125C37.8594 60.0469 37.8594 59.9531 37.875 59.875C37.875 59.8281 37.8906 59.7656 37.8906 59.7188V27.3438C37.8906 27.2969 37.875 27.2344 37.875 27.1875C37.8697 27.0322 37.838 26.879 37.7812 26.7344C37.7656 26.6719 37.75 26.5938 37.7187 26.5312C37.6875 26.4688 37.6562 26.4063 37.625 26.3281C37.5945 26.2624 37.5578 26.1996 37.5156 26.1406C37.4688 26.0781 37.4219 26.0156 37.375 25.9688C37.3281 25.9219 37.2969 25.8594 37.2344 25.8125C37.174 25.747 37.1058 25.6893 37.0312 25.6406C36.9982 25.6056 36.9615 25.5742 36.9219 25.5469C36.9062 25.5469 36.9062 25.5312 36.8906 25.5312L36.6562 25.3906C36.6094 25.3594 36.5625 25.3281 36.5 25.3125C36.4375 25.2813 36.3594 25.2656 36.2812 25.2344C36.2187 25.2188 36.1406 25.1875 36.0781 25.1719C36.0156 25.1563 35.9531 25.1563 35.8906 25.1406C35.8084 25.1225 35.7247 25.1121 35.6406 25.1094H12.3125C12.2344 25.1094 12.1406 25.125 12.0625 25.1406C12 25.1563 11.9375 25.1563 11.875 25.1719C11.8125 25.1875 11.75 25.2188 11.6875 25.2344C11.6094 25.2656 11.5312 25.2813 11.4688 25.3125C11.4219 25.3281 11.375 25.3594 11.3281 25.3906C11.25 25.4375 11.1562 25.4844 11.0781 25.5312C11.0625 25.5312 11.0625 25.5469 11.0469 25.5469C11 25.5781 10.9688 25.6094 10.9375 25.6406C10.875 25.7031 10.7969 25.75 10.7344 25.8125C10.6875 25.8594 10.6406 25.9219 10.5938 25.9688C10.5469 26.0313 10.5 26.0781 10.4531 26.1406C10.4219 26.2031 10.3906 26.2656 10.3438 26.3281C10.3125 26.3906 10.2812 26.4531 10.25 26.5312C10.2187 26.5938 10.2031 26.6719 10.1875 26.7344C10.1719 26.7969 10.1406 26.875 10.1406 26.9375C10.125 27.0156 10.125 27.1094 10.1094 27.1875C10.1094 27.2344 10.0938 27.2812 10.0938 27.3438V59.7344C10.0938 59.7812 10.1094 59.8438 10.1094 59.8906L10.1562 60.1406ZM16.7188 57.5L24 47.375L31.2812 57.5H16.7188ZM33.4219 52.7969L26.7656 43.5469L33.4219 34.2969V52.7969ZM31.2969 29.5781L24.0156 39.7031L16.7344 29.5781H31.2969ZM14.5938 34.2813L21.25 43.5312L14.5938 52.7812V34.2813ZM44.3125 29H87.0937C87.6863 29 88.2547 28.7646 88.6737 28.3456C89.0927 27.9265 89.3281 27.3582 89.3281 26.7656C89.3281 26.173 89.0927 25.6047 88.6737 25.1857C88.2547 24.7667 87.6863 24.5312 87.0937 24.5312H44.3125C43.7199 24.5312 43.1516 24.7667 42.7326 25.1857C42.3135 25.6047 42.0781 26.173 42.0781 26.7656C42.0781 27.3582 42.3135 27.9265 42.7326 28.3456C43.1516 28.7646 43.7199 29 44.3125 29ZM43.4844 37.9062H62.1094C62.4028 37.9062 62.6933 37.8485 62.9644 37.7362C63.2355 37.6239 63.4818 37.4593 63.6893 37.2518C63.8968 37.0443 64.0614 36.798 64.1737 36.5269C64.2859 36.2558 64.3437 35.9653 64.3437 35.6719C64.3437 35.3785 64.2859 35.0879 64.1737 34.8168C64.0614 34.5457 63.8968 34.2994 63.6893 34.0919C63.4818 33.8845 63.2355 33.7199 62.9644 33.6076C62.6933 33.4953 62.4028 33.4375 62.1094 33.4375H43.4844C42.25 33.4375 41.25 34.4375 41.25 35.6719C41.25 36.9062 42.2344 37.9062 43.4844 37.9062ZM70.0156 33.4219C69.423 33.4219 68.8547 33.6573 68.4357 34.0763C68.0166 34.4953 67.7812 35.0637 67.7812 35.6562C67.7812 36.2488 68.0166 36.8172 68.4357 37.2362C68.8547 37.6552 69.423 37.8906 70.0156 37.8906H88.6562C89.2488 37.8906 89.8172 37.6552 90.2362 37.2362C90.6552 36.8172 90.8906 36.2488 90.8906 35.6562C90.8906 35.0637 90.6552 34.4953 90.2362 34.0763C89.8172 33.6573 89.2488 33.4219 88.6562 33.4219H70.0156ZM86.6719 9.35938H70.9844C70.3918 9.35938 69.8235 9.59478 69.4044 10.0138C68.9854 10.4328 68.75 11.0012 68.75 11.5938C68.75 12.1863 68.9854 12.7547 69.4044 13.1737C69.8235 13.5927 70.3918 13.8281 70.9844 13.8281H86.6875C87.9219 13.8281 88.9219 12.8281 88.9219 11.5938C88.9062 10.3594 87.9062 9.35938 86.6719 9.35938Z" fill="#00ADB5"/>
</g>
<defs>
<clipPath id="clip0_59_35">
<rect width="100" height="100" fill="none" transform="translate(0.5)"/>
</clipPath>
</defs>
</svg>
